<svg width="24" height="24" viewBox="0 0 24 24" fill="none" xmlns="http://www.w3.org/2000/svg">
<path d="M21.8182 0H2.18182C0.976364 0 0 0.976364 0 2.18182V21.8182C0 23.0236 0.976364 24 2.18182 24H21.8182C23.0236 24 24 23.0236 24 21.8182V2.18182C24 0.976364 23.0236 0 21.8182 0ZM18.1964 8.71527C18.2029 8.85709 18.2062 9 18.2062 9.14291C18.2062 13.5098 14.8822 18.5455 8.80364 18.5455C6.93709 18.5455 5.20036 17.9989 3.73745 17.0607C3.996 17.0913 4.26 17.1065 4.52618 17.1065C6.07418 17.1065 7.49891 16.5785 8.63018 15.6916C7.18364 15.6644 5.964 14.7087 5.54291 13.3964C5.74473 13.4345 5.952 13.4553 6.16473 13.4553C6.46691 13.4553 6.75818 13.4149 7.03636 13.3396C5.52436 13.0364 4.38546 11.7011 4.38546 10.0996C4.38546 10.0855 4.38546 10.0724 4.38546 10.0582C4.83164 10.3058 5.34 10.4542 5.88218 10.4716C4.99527 9.87927 4.41273 8.868 4.41273 7.72145C4.41273 7.11491 4.57636 6.54764 4.86 6.06C6.48982 8.05964 8.92473 9.37527 11.6716 9.51273C11.616 9.27164 11.5865 9.01855 11.5865 8.76C11.5865 6.93491 13.0669 5.45564 14.8909 5.45564C15.8411 5.45564 16.7007 5.85709 17.3029 6.49964C18.0556 6.35127 18.7636 6.07636 19.4018 5.69782C19.1553 6.46909 18.6316 7.11709 17.9487 7.52618C18.6175 7.44655 19.2545 7.26873 19.8469 7.00582C19.4029 7.66691 18.8422 8.24836 18.1964 8.71527Z" fill="#E1E1E1"/>
</svg>
