<svg width="121" height="20" viewBox="0 0 121 20" fill="none" xmlns="http://www.w3.org/2000/svg">
<path d="M4 0H0V20H12V17H4V0Z" fill="#292929"/>
<path d="M59 3H67V20H71V0H59V3Z" fill="#292929"/>
<path d="M25 0H20L13 20H17L18.4 16H26.7L28.1 20H32.1L25 0ZM19.4 13L22.5 4L25.6 13H19.4Z" fill="#292929"/>
<path d="M48.5 16L45 0H41L37.5 16L32 0H28L35 20H37.5H40L43 8L46 20H48.5H51L58 0H54L48.5 16Z" fill="#292929"/>
<path d="M96 0H92V20H104V17H96V0Z" fill="#292929"/>
<path d="M84 0H79L72 20H76L77.4 16H85.7L87.1 20H91.1L84 0ZM78.4 13L81.5 4L84.6 13H78.4Z" fill="#292929"/>
<path d="M111.5 10L120 0H115L109 7.1V0H105V20H109V12.6L116 20H121L111.5 10Z" fill="#292929"/>
<path d="M74.5 3C75.3284 3 76 2.32843 76 1.5C76 0.671573 75.3284 0 74.5 0C73.6716 0 73 0.671573 73 1.5C73 2.32843 73.6716 3 74.5 3Z" fill="#292929"/>
</svg>
